<?xml version="1.0" encoding="UTF-8"?>
<svg id="Layer_1" data-name="Layer 1" xmlns="http://www.w3.org/2000/svg" viewBox="0 0 195.93 32">
  <defs>
    <style>
      .cls-1 {
        fill: #fff;
      }
    </style>
  </defs>
  <g>
    <path class="cls-1" d="M50.24,28.21H9.48V3.79h40.76v24.41ZM11.38,26.3h36.95V5.7H11.38v20.6Z"/>
    <rect class="cls-1" x="13.11" y="7.58" width="7.69" height="16.85"/>
    <rect class="cls-1" x="48.74" y="9.15" width="4.99" height="13.7"/>
  </g>
  <g>
    <path class="cls-1" d="M69.24,8.46v-1.26h7.54v1.26h1.26v1.26h1.26v12.56h-1.26v1.26h-1.26v1.26h-7.54v-1.26h-1.26v-1.26h-1.26v-12.56h1.26v-1.26h1.26ZM70.5,17.26v-1.26h1.26v-1.26h1.26v-1.26h1.26v-1.26h2.51v-1.26h-1.26v-1.26h-5.02v1.26h-1.26v6.28h1.26ZM69.24,19.77v1.26h1.26v1.26h5.02v-1.26h1.26v-6.28h-1.26v1.26h-1.26v1.26h-1.26v1.26h-1.26v1.26h-2.51Z"/>
    <path class="cls-1" d="M84.31,8.46v-1.26h7.54v1.26h1.26v1.26h1.26v12.56h-1.26v1.26h-1.26v1.26h-7.54v-1.26h-1.26v-1.26h-1.26v-12.56h1.26v-1.26h1.26ZM85.57,17.26v-1.26h1.26v-1.26h1.26v-1.26h1.26v-1.26h2.51v-1.26h-1.26v-1.26h-5.02v1.26h-1.26v6.28h1.26ZM84.31,19.77v1.26h1.26v1.26h5.02v-1.26h1.26v-6.28h-1.26v1.26h-1.26v1.26h-1.26v1.26h-1.26v1.26h-2.51Z"/>
    <path class="cls-1" d="M103.15,9.72v2.51h-2.51v-2.51h2.51ZM103.15,19.77v2.51h-2.51v-2.51h2.51Z"/>
    <path class="cls-1" d="M120.26,8.46v-1.26h2.51v10.05h2.51v2.51h-2.51v5.02h-2.51v-5.02h-7.54v-5.02h1.26v-1.26h1.26v-1.26h1.26v-1.26h1.26v-1.26h1.26v-1.26h1.26ZM120.26,17.26v-5.02h-1.26v1.26h-1.26v1.26h-1.26v1.26h-1.26v1.26h5.02Z"/>
    <path class="cls-1" d="M127.79,7.21h12.56v2.51h-10.05v2.51h7.54v1.26h1.26v1.26h1.26v7.54h-1.26v1.26h-1.26v1.26h-7.54v-1.26h-1.26v-1.26h-1.26v-2.51h2.51v1.26h1.26v1.26h5.02v-1.26h1.26v-5.02h-1.26v-1.26h-8.79v-7.54Z"/>
    <path class="cls-1" d="M149.15,9.72v2.51h-2.51v-2.51h2.51ZM149.15,19.77v2.51h-2.51v-2.51h2.51Z"/>
    <path class="cls-1" d="M161.33,8.46v-1.26h7.54v1.26h1.26v1.26h1.26v12.56h-1.26v1.26h-1.26v1.26h-7.54v-1.26h-1.26v-1.26h-1.26v-12.56h1.26v-1.26h1.26ZM162.58,17.26v-1.26h1.26v-1.26h1.26v-1.26h1.26v-1.26h2.51v-1.26h-1.26v-1.26h-5.02v1.26h-1.26v6.28h1.26ZM161.33,19.77v1.26h1.26v1.26h5.02v-1.26h1.26v-6.28h-1.26v1.26h-1.26v1.26h-1.26v1.26h-1.26v1.26h-2.51Z"/>
    <path class="cls-1" d="M176.4,8.46v-1.26h7.54v1.26h1.26v1.26h1.26v12.56h-1.26v1.26h-1.26v1.26h-7.54v-1.26h-1.26v-1.26h-1.26v-12.56h1.26v-1.26h1.26ZM177.66,17.26v-1.26h1.26v-1.26h1.26v-1.26h1.26v-1.26h2.51v-1.26h-1.26v-1.26h-5.02v1.26h-1.26v6.28h1.26ZM176.4,19.77v1.26h1.26v1.26h5.02v-1.26h1.26v-6.28h-1.26v1.26h-1.26v1.26h-1.26v1.26h-1.26v1.26h-2.51Z"/>
  </g>
</svg>