<?xml version="1.0" encoding="UTF-8"?>
<svg id="Layer_1" data-name="Layer 1" xmlns="http://www.w3.org/2000/svg" viewBox="0 0 195.93 32">
  <defs>
    <style>
      .cls-1 {
        fill: #fff;
      }

      .cls-2 {
        fill: #ec1e2b;
      }
    </style>
  </defs>
  <path class="cls-1" d="M18.57,4.04v3h-5.97v17.93h5.97v3h-8.99V4.04h8.99Z"/>
  <path class="cls-2" d="M23.07,25.92v-2.58h2.58v-12.86h-2.58v-2.58h7.71v2.58h-2.58v12.86h2.58v2.58h-7.71Z"/>
  <path class="cls-2" d="M38.49,15.63v10.29h-2.58V7.92h2.58v3.86h1.29v1.29h1.29v1.29h1.29v1.29h1.29v1.29h1.29v1.29h1.29V7.94h2.58v18h-2.58v-3.86h-1.29v-1.29h-1.29v-1.29h-1.29v-1.29h-1.29v-1.29h-1.29v-1.29h-1.29Z"/>
  <path class="cls-1" d="M62.92,15.63v2.58h-10.29v-2.58h10.29Z"/>
  <path class="cls-1" d="M69.34,15.63v10.29h-2.58V7.92h2.58v3.86h1.29v1.29h1.29v1.29h1.29v1.29h1.29v1.29h1.29v1.29h1.29V7.94h2.58v18h-2.58v-3.86h-1.29v-1.29h-1.29v-1.29h-1.29v-1.29h-1.29v-1.29h-1.29v-1.29h-1.29Z"/>
  <path class="cls-1" d="M84.76,25.92h-2.58v-12.86h1.29v-1.29h1.29v-1.29h1.29v-1.29h1.29v-1.29h2.58v1.29h1.29v1.29h1.29v1.29h1.29v1.29h1.29v12.86h-2.58v-5.13h-7.71v5.13h-.02ZM84.76,18.21h7.71v-3.86h-1.29v-1.29h-1.29v-1.29h-2.58v1.29h-1.29v1.29h-1.29v3.86h.02Z"/>
  <path class="cls-1" d="M102.76,10.5h-5.13v-2.58h12.86v2.58h-5.13v15.42h-2.58v-15.42h-.02Z"/>
  <path class="cls-1" d="M114.33,23.34h-1.29V7.92h2.58v14.13h1.29v1.29h5.13v-1.29h1.29V7.92h2.58v15.42h-1.29v1.29h-1.29v1.29h-7.71v-1.29h-1.29v-1.29Z"/>
  <path class="cls-1" d="M132.33,18.21h-1.29v7.71h-2.58V7.92h10.29v1.29h1.29v1.29h1.29v5.13h-1.29v1.29h-1.29v1.29h-2.58v1.29h1.29v1.29h1.29v1.29h1.29v1.29h1.29v2.58h-2.58v-1.29h-1.29v-1.29h-1.29v-1.29h-1.29v-1.29h-1.29v-1.29h-1.29v-1.29h.02ZM131.04,10.5v5.13h6.42v-1.29h1.29v-2.58h-1.29v-1.29h-6.42v.02Z"/>
  <path class="cls-1" d="M146.48,25.92h-2.58v-12.86h1.29v-1.29h1.29v-1.29h1.29v-1.29h1.29v-1.29h2.58v1.29h1.29v1.29h1.29v1.29h1.29v1.29h1.29v12.86h-2.58v-5.13h-7.71v5.13h-.02ZM146.48,18.21h7.71v-3.86h-1.29v-1.29h-1.29v-1.29h-2.58v1.29h-1.29v1.29h-1.29v3.86h.02Z"/>
  <path class="cls-1" d="M159.32,25.92V7.92h2.58v15.42h10.29v2.58h-12.86Z"/>
  <path class="cls-1" d="M183.35,7.04h-5.97v-3h8.96v23.92h-8.96v-3h5.97s0-17.93,0-17.93Z"/>
</svg>